<?xml version="1.0" encoding="utf-8"?>
<!-- Generator: Adobe Illustrator 16.0.0, SVG Export Plug-In . SVG Version: 6.00 Build 0)  -->
<!DOCTYPE svg PUBLIC "-//W3C//DTD SVG 1.1//EN" "http://www.w3.org/Graphics/SVG/1.1/DTD/svg11.dtd">
<svg version="1.1" id="Layer_1" xmlns="http://www.w3.org/2000/svg" xmlns:xlink="http://www.w3.org/1999/xlink" x="0px" y="0px"
	 width="146.085px" height="146.085px" viewBox="0 0 146.085 146.085" enable-background="new 0 0 146.085 146.085"
	 xml:space="preserve">
<g>
	<path fill="#FFFFFF" d="M75.478,119.303c-5.371,0-9.739,3.823-9.739,8.522s4.368,8.521,9.739,8.521
		c5.371,0,9.739-3.822,9.739-8.521S80.848,119.303,75.478,119.303 M75.478,131.477c-2.639,0-4.87-1.673-4.87-3.651
		c0-1.98,2.231-3.652,4.87-3.652c2.639,0,4.87,1.672,4.87,3.652C80.347,129.804,78.116,131.477,75.478,131.477"/>
	<path fill="#FFFFFF" d="M107.129,12.174c-0.389,0-38.956,0.264-38.956,9.739v9.739c0,0.557,0.144,1.083,0.397,1.577l3.148,50.098
		c-4.709,0.387-9.196,0.996-13.282,1.819V73.043V58.434V46.26c0-0.348-0.073-0.69-0.219-1.008L47.319,21.28
		c0.857-1.198,1.376-2.654,1.376-4.237V7.304C48.695,3.277,45.418,0,41.391,0H17.043c-4.027,0-7.304,3.277-7.304,7.304v9.739
		c0,1.583,0.518,3.039,1.375,4.237L0.219,45.252C0.073,45.569,0,45.912,0,46.26v12.174v14.609v51.13
		c0,9.396,7.647,17.043,17.043,17.043h24.348c1.908,0,3.773-0.329,5.568-0.955c8.767,3.97,23.539,5.824,38.257,5.824
		c21.903,0,43.95-4.1,46.054-13.184c0.124-0.471,0.207-0.945,0.207-1.425v-16.697v-0.346h7.304c1.288,0,2.357-1.006,2.43-2.292
		l4.623-79.274c0.149-0.391,0.251-0.789,0.251-1.215v-9.739C146.085,12.438,107.519,12.174,107.129,12.174 M141.216,26.962v4.298
		c-0.061,0.065-0.132,0.131-0.215,0.197c-0.07,0.056-0.136,0.11-0.221,0.165c-0.132,0.086-0.29,0.173-0.455,0.263
		c-0.108,0.057-0.21,0.112-0.329,0.171c-0.188,0.091-0.404,0.181-0.626,0.271c-0.143,0.059-0.28,0.117-0.438,0.175
		c-0.239,0.091-0.507,0.181-0.777,0.271c-0.18,0.061-0.355,0.118-0.548,0.18c-0.287,0.088-0.601,0.178-0.915,0.265
		c-0.217,0.062-0.426,0.122-0.655,0.184c-0.326,0.085-0.682,0.17-1.032,0.258c-0.254,0.061-0.502,0.124-0.767,0.185
		c-0.366,0.083-0.755,0.166-1.142,0.246c-0.29,0.062-0.57,0.122-0.872,0.184c-0.394,0.076-0.813,0.152-1.227,0.228
		c-0.326,0.061-0.645,0.122-0.984,0.181c-0.421,0.073-0.866,0.142-1.305,0.211c-0.362,0.06-0.715,0.117-1.09,0.174
		c-0.446,0.065-0.913,0.127-1.374,0.189c-0.394,0.054-0.779,0.11-1.183,0.161c-0.487,0.061-0.993,0.117-1.495,0.175
		c-0.402,0.046-0.794,0.095-1.203,0.14c-0.526,0.056-1.068,0.104-1.609,0.155c-0.411,0.039-0.816,0.08-1.237,0.117
		c-0.533,0.046-1.086,0.082-1.631,0.121c-0.446,0.032-0.882,0.069-1.334,0.098c-0.592,0.039-1.201,0.066-1.807,0.098
		c-0.414,0.021-0.823,0.049-1.242,0.065c-0.708,0.032-1.429,0.051-2.15,0.07c-0.336,0.01-0.664,0.025-1,0.032
		c-1.067,0.021-2.14,0.034-3.224,0.034c-1.083,0-2.16-0.013-3.221-0.036c-0.285-0.009-0.565-0.021-0.847-0.027
		c-0.775-0.022-1.551-0.044-2.311-0.078c-0.29-0.012-0.57-0.032-0.857-0.046c-0.745-0.037-1.49-0.073-2.221-0.122
		c-0.245-0.017-0.482-0.036-0.727-0.054c-0.763-0.053-1.522-0.107-2.26-0.17c-0.175-0.016-0.343-0.034-0.519-0.049
		c-0.798-0.07-1.592-0.146-2.361-0.227c-0.103-0.012-0.2-0.023-0.302-0.034c-0.828-0.09-1.644-0.185-2.435-0.284
		c-0.056-0.008-0.11-0.016-0.168-0.022c-8.573-1.108-14.674-2.807-15.86-4.141v-4.27c0.063,0.027,0.139,0.052,0.202,0.078
		c0.516,0.219,1.064,0.426,1.639,0.626c0.148,0.051,0.294,0.105,0.448,0.156c0.645,0.212,1.314,0.414,2.016,0.604
		c0.151,0.041,0.304,0.078,0.457,0.117c0.624,0.163,1.262,0.316,1.917,0.462c0.153,0.034,0.304,0.071,0.46,0.105
		c0.755,0.163,1.529,0.313,2.313,0.455c0.195,0.036,0.392,0.067,0.589,0.102c0.708,0.122,1.422,0.239,2.143,0.349
		c0.121,0.018,0.241,0.039,0.36,0.057c0.813,0.119,1.629,0.226,2.447,0.328c0.212,0.026,0.423,0.051,0.635,0.078
		c0.799,0.095,1.598,0.185,2.386,0.266c0.049,0.004,0.095,0.009,0.142,0.014c0.801,0.081,1.589,0.154,2.369,0.219
		c0.197,0.018,0.392,0.034,0.589,0.052c0.769,0.063,1.524,0.122,2.257,0.173c0.122,0.01,0.236,0.015,0.355,0.025
		c0.655,0.043,1.291,0.084,1.907,0.118c0.158,0.011,0.316,0.02,0.47,0.027c0.672,0.036,1.314,0.07,1.923,0.097
		c0.129,0.005,0.246,0.011,0.373,0.018c0.533,0.023,1.039,0.044,1.512,0.061c0.092,0.002,0.19,0.007,0.28,0.01
		c0.521,0.02,0.991,0.031,1.419,0.045c0.107,0.002,0.195,0.004,0.295,0.007c0.384,0.01,0.735,0.017,1.025,0.023h0.041
		c0.304,0.005,0.536,0.01,0.718,0.013c0.081,0,0.117,0.003,0.173,0.003c0.127,0.005,0.214,0.005,0.229,0.005
		c0.015,0,0.102,0,0.224-0.003c0.056,0,0.093,0,0.173-0.002c0.183-0.003,0.414-0.006,0.718-0.013h0.042
		c0.289-0.005,0.64-0.015,1.025-0.024c0.099-0.002,0.19-0.005,0.294-0.007c0.429-0.013,0.899-0.027,1.42-0.045
		c0.092-0.002,0.187-0.007,0.282-0.01c0.472-0.017,0.976-0.039,1.51-0.06c0.126-0.005,0.243-0.01,0.372-0.018
		c0.609-0.029,1.252-0.061,1.924-0.098c0.155-0.01,0.311-0.017,0.47-0.027c0.616-0.036,1.249-0.074,1.906-0.118
		c0.119-0.008,0.234-0.016,0.355-0.024c0.733-0.051,1.488-0.11,2.257-0.173c0.195-0.018,0.392-0.034,0.59-0.051
		c0.779-0.068,1.568-0.14,2.369-0.22c0.046-0.005,0.095-0.01,0.141-0.015c0.789-0.08,1.587-0.17,2.386-0.265
		c0.212-0.025,0.424-0.053,0.635-0.078c0.819-0.104,1.634-0.21,2.447-0.329c0.122-0.018,0.241-0.039,0.363-0.057
		c0.721-0.106,1.434-0.224,2.14-0.348c0.198-0.034,0.395-0.068,0.592-0.102c0.784-0.143,1.558-0.293,2.313-0.456
		c0.156-0.034,0.307-0.07,0.46-0.104c0.655-0.146,1.295-0.3,1.916-0.463c0.151-0.039,0.307-0.078,0.458-0.117
		c0.699-0.189,1.371-0.392,2.016-0.604c0.153-0.051,0.3-0.103,0.448-0.156c0.572-0.199,1.122-0.406,1.639-0.625
		C141.077,27.014,141.152,26.989,141.216,26.962 M140.751,21.91c-0.012,0.008-0.015,0.015-0.027,0.021
		c-0.044,0.027-0.107,0.057-0.153,0.083c-0.19,0.112-0.395,0.225-0.641,0.339c-0.085,0.038-0.19,0.077-0.28,0.119
		c-0.241,0.104-0.487,0.207-0.769,0.314c-0.12,0.044-0.258,0.087-0.385,0.134c-0.287,0.1-0.582,0.202-0.908,0.302
		c-0.153,0.047-0.324,0.096-0.485,0.142c-0.331,0.097-0.672,0.194-1.034,0.292c-0.188,0.049-0.385,0.097-0.58,0.146
		c-0.37,0.094-0.75,0.188-1.149,0.278c-0.219,0.051-0.448,0.099-0.677,0.151c-0.409,0.09-0.825,0.177-1.259,0.265
		c-0.248,0.049-0.501,0.097-0.757,0.146c-0.441,0.085-0.891,0.169-1.354,0.248c-0.28,0.05-0.562,0.099-0.849,0.145
		c-0.468,0.078-0.95,0.153-1.439,0.229c-0.307,0.046-0.614,0.093-0.928,0.14c-0.492,0.069-0.996,0.139-1.505,0.204
		c-0.336,0.044-0.672,0.088-1.015,0.129c-0.514,0.063-1.04,0.122-1.57,0.18c-0.361,0.039-0.716,0.081-1.084,0.117
		c-0.535,0.054-1.083,0.104-1.634,0.153c-0.379,0.034-0.754,0.07-1.139,0.103c-0.562,0.046-1.139,0.088-1.714,0.127
		c-0.387,0.026-0.767,0.056-1.159,0.08c-0.604,0.036-1.22,0.068-1.836,0.097c-0.38,0.021-0.752,0.042-1.134,0.057
		c-0.68,0.029-1.374,0.049-2.065,0.067c-0.329,0.011-0.653,0.022-0.981,0.03c-1.028,0.024-2.065,0.036-3.112,0.036
		c-1.047,0-2.084-0.012-3.112-0.034c-0.331-0.007-0.652-0.021-0.981-0.029c-0.691-0.02-1.383-0.039-2.064-0.067
		c-0.383-0.018-0.755-0.039-1.135-0.057c-0.616-0.031-1.232-0.061-1.836-0.098c-0.392-0.024-0.774-0.053-1.159-0.08
		c-0.574-0.041-1.149-0.08-1.711-0.127c-0.385-0.031-0.762-0.068-1.14-0.102c-0.548-0.05-1.098-0.101-1.631-0.153
		c-0.365-0.037-0.723-0.078-1.084-0.117c-0.528-0.059-1.056-0.117-1.57-0.18c-0.343-0.042-0.679-0.086-1.015-0.129
		c-0.509-0.066-1.013-0.135-1.505-0.205c-0.314-0.044-0.621-0.09-0.928-0.14c-0.489-0.074-0.969-0.15-1.439-0.229
		c-0.287-0.048-0.569-0.094-0.849-0.144c-0.463-0.08-0.916-0.162-1.354-0.247c-0.256-0.05-0.509-0.099-0.757-0.147
		c-0.434-0.087-0.852-0.175-1.259-0.265c-0.229-0.05-0.458-0.101-0.677-0.151c-0.399-0.092-0.779-0.185-1.149-0.278
		c-0.195-0.048-0.395-0.097-0.582-0.147c-0.363-0.098-0.701-0.192-1.032-0.29c-0.163-0.048-0.331-0.095-0.487-0.144
		c-0.327-0.1-0.621-0.202-0.908-0.302c-0.127-0.044-0.266-0.088-0.385-0.134c-0.285-0.105-0.531-0.21-0.77-0.314
		c-0.09-0.039-0.197-0.081-0.28-0.119c-0.245-0.114-0.45-0.227-0.64-0.339c-0.046-0.026-0.109-0.056-0.153-0.083
		c-0.012-0.007-0.015-0.014-0.027-0.021c3.316-2.125,17.421-4.867,33.619-4.867C123.328,17.043,137.432,19.785,140.751,21.91
		 M74.46,88.012c3.593-0.238,7.211-0.36,10.756-0.36c1.678,0,3.302,0.024,4.88,0.067c0.046,5.34,5.48,9.671,12.164,9.671
		c5.434,0,9.992-2.883,11.553-6.821c8.514,2.096,12.794,4.882,12.794,6.821c0,3.497-13.832,9.739-41.391,9.739
		c-1.85,0-3.625-0.031-5.351-0.085c0.306-0.76,0.482-1.544,0.482-2.35c0-5.552-7.329-9.739-17.044-9.739
		c-7.35,0-13.357,2.408-15.816,6.026c-1.29-0.685-2.242-1.363-2.846-2.009c-0.095-0.188-0.175-0.385-0.317-0.548l-0.07,0.055
		c-0.005-0.009-0.01-0.014-0.012-0.021l0.061-0.066c-0.064-0.077-0.151-0.116-0.222-0.187c-0.034-0.102-0.022-0.21-0.071-0.309
		c-0.012-0.027-0.034-0.064-0.058-0.11c-0.015-0.027-0.032-0.056-0.049-0.088c-0.027-0.1-0.078-0.209-0.078-0.31
		c0-0.129,0.059-0.268,0.095-0.401c0.577-1.453,4.147-3.988,12.663-6.097c0.385-0.095,0.707-0.302,0.991-0.548
		c4.507-1.045,10.129-1.887,16.851-2.335C74.438,88.007,74.447,88.014,74.46,88.012 M105.276,88.959
		c0.229,0.031,0.463,0.063,0.687,0.097c0.808,0.119,1.597,0.251,2.376,0.386c0.21,0.035,0.417,0.072,0.621,0.111
		c-1.135,1.727-3.745,2.969-6.7,2.969c-3.811,0-7.051-2.067-7.29-4.575C98.615,88.162,102.055,88.506,105.276,88.959
		 M119.303,124.173c0-4.027,3.277-7.305,7.304-7.305v14.608C122.58,131.477,119.303,128.2,119.303,124.173 M74.058,106.745
		c-0.85-0.06-1.707-0.117-2.52-0.188c-0.395-0.033-0.779-0.074-1.169-0.111c-0.876-0.085-1.731-0.175-2.564-0.273
		c-0.362-0.041-0.725-0.085-1.083-0.129c-2.403-0.306-4.629-0.662-6.654-1.061c-0.039-0.009-0.081-0.018-0.12-0.025
		c-3.014-0.599-5.587-1.29-7.757-2.016c1.78-1.595,5.763-3.116,11.112-3.116c7.431,0,12.174,2.885,12.174,4.869
		C75.477,105.325,74.966,106.051,74.058,106.745 M43.825,114.434c1.344,0,2.435,1.091,2.435,2.435s-1.091,2.435-2.435,2.435V114.434
		z M4.869,60.869H16.58c0.867,0,1.673-0.463,2.106-1.215c2.172-3.757,6.209-6.089,10.531-6.089c4.321,0,8.358,2.332,10.53,6.089
		c0.436,0.752,1.239,1.215,2.106,1.215h11.711v9.739H41.853c-0.867,0-1.672,0.462-2.106,1.215c-2.172,3.757-6.209,6.089-10.53,6.089
		c-4.322,0-8.359-2.332-10.531-6.089c-0.435-0.753-1.239-1.215-2.106-1.215H4.869V60.869z M14.608,7.304
		c0-1.344,1.091-2.435,2.435-2.435h24.348c1.344,0,2.434,1.091,2.434,2.435v9.739c0,0.872-0.484,1.6-1.171,2.031
		c-0.316,0.207-0.72,0.404-1.263,0.404H17.043c-0.543,0-0.947-0.197-1.264-0.404c-0.686-0.432-1.171-1.159-1.171-2.031V7.304z
		 M15.18,24.102c0.047,0.013,0.095,0.008,0.142,0.02c0.555,0.136,1.127,0.226,1.721,0.226h24.348c0.594,0,1.166-0.09,1.719-0.226
		c0.046-0.012,0.094-0.007,0.141-0.02l10.313,22.688v9.21H43.187c-3.17-4.538-8.397-7.304-13.97-7.304
		c-5.573,0-10.803,2.766-13.971,7.304H4.869v-9.21L15.18,24.102z M4.869,124.173V75.477h10.377c3.17,4.539,8.398,7.306,13.971,7.306
		c5.573,0,10.803-2.767,13.97-7.306h10.377v10.797c-7.754,2.117-13.22,5.239-14.365,9.451c-0.16,0.54-0.243,1.096-0.243,1.665
		v14.609v9.739v9.738c0,0.515,0.087,1.016,0.219,1.508c0.075,0.307,0.192,0.604,0.312,0.9c0.031,0.073,0.063,0.144,0.099,0.217
		c0.353,0.786,0.831,1.541,1.486,2.244H17.043C10.33,136.346,4.869,130.885,4.869,124.173 M49.255,135.913
		c-0.224-0.265-0.487-0.499-0.813-0.65c-2.91-1.349-4.205-2.598-4.527-3.405c-0.034-0.127-0.09-0.259-0.09-0.381v-7.304
		c4.027,0,7.305-3.277,7.305-7.305s-3.278-7.304-7.305-7.304v-5.035c0.288,0.183,0.611,0.354,0.921,0.533
		c0.156,0.088,0.302,0.18,0.462,0.268c0.689,0.372,1.427,0.73,2.211,1.069c0.151,0.065,0.314,0.124,0.468,0.189
		c0.667,0.277,1.363,0.543,2.089,0.798c0.241,0.086,0.479,0.168,0.725,0.251c0.813,0.271,1.656,0.531,2.532,0.777
		c0.095,0.027,0.183,0.056,0.278,0.083c0.983,0.27,2.009,0.518,3.06,0.757c0.258,0.059,0.524,0.112,0.787,0.17
		c0.847,0.184,1.714,0.356,2.598,0.517c0.27,0.049,0.538,0.103,0.813,0.148c1.125,0.197,2.271,0.38,3.445,0.545
		c0.127,0.018,0.256,0.032,0.38,0.049c0.969,0.135,1.953,0.257,2.948,0.368c0.163,0.02,0.327,0.039,0.492,0.057
		c0.261,0.028,0.526,0.053,0.787,0.08c0.613,0.063,1.227,0.124,1.848,0.18c0.248,0.021,0.487,0.051,0.735,0.073l0.618,0.046
		c0.022,0.003,0.044,0.003,0.066,0.005c0.163,0.012,0.324,0.027,0.485,0.039c1.244,0.095,2.5,0.176,3.766,0.241
		c0.304,0.017,0.611,0.026,0.916,0.042c1,0.046,2.003,0.085,3.014,0.111c0.36,0.01,0.721,0.022,1.083,0.029
		c1.291,0.024,2.576,0.044,3.864,0.044c1.288,0,2.574-0.02,3.859-0.049c0.363-0.007,0.721-0.02,1.084-0.029
		c1.008-0.029,2.013-0.065,3.014-0.112c0.304-0.015,0.611-0.023,0.916-0.042c1.266-0.064,2.522-0.146,3.769-0.24
		c0.233-0.018,0.465-0.041,0.698-0.059c1.03-0.083,2.048-0.178,3.056-0.282c0.338-0.034,0.677-0.07,1.013-0.107
		c1.086-0.119,2.159-0.25,3.214-0.396c0.126-0.017,0.255-0.031,0.379-0.049c1.174-0.166,2.321-0.351,3.446-0.546
		c0.275-0.048,0.54-0.099,0.813-0.147c0.886-0.163,1.75-0.336,2.598-0.517c0.263-0.056,0.528-0.112,0.786-0.171
		c1.052-0.238,2.077-0.487,3.061-0.757c0.095-0.027,0.182-0.056,0.277-0.08c0.877-0.246,1.719-0.507,2.535-0.777
		c0.246-0.083,0.484-0.165,0.725-0.248c0.726-0.256,1.422-0.521,2.089-0.799c0.154-0.063,0.317-0.124,0.468-0.189
		c0.784-0.341,1.519-0.696,2.211-1.069c0.16-0.087,0.306-0.177,0.462-0.267c0.309-0.177,0.633-0.35,0.921-0.534v7.468
		c-6.713,0-12.174,5.461-12.174,12.174c0,5.134,3.206,9.513,7.711,11.299c-6.082,2.915-18.383,5.744-36.931,5.744
		C67.603,141.216,55.627,138.664,49.255,135.913 M136.485,109.564h-5.008V97.39c0-10.092-23.235-14.607-46.261-14.607
		c-2.892,0-5.787,0.069-8.641,0.216l-2.887-45.99c8.008,3.126,23.313,4.368,33.28,4.38h0.164h0.16
		c10.117-0.012,25.453-1.274,33.429-4.442L136.485,109.564z"/>
	<path fill="#FFFFFF" d="M107.129,56.331c-3.324-5.997-9.715-10.071-17.044-10.071h-2.434c-1.347,0-2.435,1.089-2.435,2.436v2.435
		c0,10.74,8.738,19.478,19.478,19.478v7.305h4.869v-7.305c10.74,0,19.479-8.737,19.479-19.478v-2.435
		c0-1.347-1.089-2.436-2.435-2.436h-2.435C116.843,46.26,110.453,50.334,107.129,56.331 M90.085,51.13
		c8.057,0,14.609,6.552,14.609,14.609C96.638,65.739,90.085,59.187,90.085,51.13 M124.172,51.13c0,8.057-6.552,14.609-14.609,14.609
		C109.563,57.682,116.116,51.13,124.172,51.13"/>
</g>
</svg>
