<?xml version="1.0" encoding="utf-8"?>
<!-- Generator: Adobe Illustrator 16.0.0, SVG Export Plug-In . SVG Version: 6.00 Build 0)  -->
<!DOCTYPE svg PUBLIC "-//W3C//DTD SVG 1.1//EN" "http://www.w3.org/Graphics/SVG/1.1/DTD/svg11.dtd">
<svg version="1.1" id="Layer_1" xmlns="http://www.w3.org/2000/svg" xmlns:xlink="http://www.w3.org/1999/xlink" x="0px" y="0px"
	 width="105.546px" height="101.432px" viewBox="0 0 105.546 101.432" enable-background="new 0 0 105.546 101.432"
	 xml:space="preserve">
<g>
	<path fill="#FFFFFF" d="M65.746,101.432c-2.871,0-5.613-1.041-8.033-1.96c-1.808-0.687-3.677-1.396-4.94-1.396
		s-3.132,0.709-4.94,1.396c-2.419,0.919-5.162,1.96-8.033,1.96c-1.167,0-2.289-0.173-3.337-0.513
		c-4.216-1.369-6.621-5.072-8.553-8.047c-1.013-1.559-2.06-3.171-2.978-3.839c-0.947-0.689-2.826-1.197-4.643-1.688
		c-3.401-0.919-7.634-2.063-10.211-5.604c-2.556-3.513-2.344-7.872-2.174-11.375c0.092-1.898,0.188-3.86-0.186-5.01
		c-0.336-1.035-1.525-2.502-2.675-3.921C2.797,58.663,0,55.212,0,50.716s2.797-7.947,5.044-10.72c1.15-1.419,2.339-2.886,2.674-3.92
		c0.374-1.15,0.278-3.113,0.187-5.011c-0.17-3.503-0.382-7.862,2.174-11.375c2.577-3.54,6.811-4.685,10.212-5.604
		c1.817-0.491,3.695-0.999,4.642-1.688c0.918-0.668,1.965-2.28,2.978-3.839c1.932-2.976,4.337-6.678,8.552-8.047
		C37.51,0.173,38.633,0,39.8,0c2.871,0,5.613,1.041,8.033,1.96c1.808,0.687,3.677,1.396,4.94,1.396s3.132-0.709,4.94-1.396
		C60.133,1.041,62.875,0,65.746,0c1.167,0,2.29,0.173,3.337,0.513c4.216,1.369,6.621,5.072,8.553,8.047
		c1.013,1.559,2.06,3.171,2.978,3.839c0.947,0.689,2.826,1.197,4.643,1.688c3.401,0.919,7.634,2.063,10.211,5.604
		c2.556,3.513,2.344,7.872,2.174,11.375c-0.092,1.898-0.188,3.86,0.186,5.01c0.336,1.035,1.525,2.502,2.674,3.921
		c2.248,2.772,5.044,6.224,5.044,10.72s-2.797,7.947-5.044,10.72c-1.149,1.419-2.338,2.886-2.674,3.92
		c-0.374,1.15-0.278,3.113-0.187,5.011c0.17,3.503,0.382,7.862-2.174,11.375c-2.577,3.541-6.81,4.685-10.211,5.604
		c-1.817,0.491-3.696,0.999-4.642,1.688c-0.918,0.668-1.965,2.28-2.978,3.839c-1.932,2.975-4.337,6.678-8.552,8.047
		C68.036,101.259,66.913,101.432,65.746,101.432z M52.773,88.604c3,0,5.817,1.069,8.302,2.013c1.74,0.66,3.538,1.343,4.671,1.343
		c0.172,0,0.31-0.017,0.412-0.05c1.024-0.332,2.416-2.475,3.534-4.196c1.413-2.175,3.014-4.64,5.348-6.338
		c2.36-1.718,5.221-2.491,7.744-3.174c1.966-0.531,4.412-1.192,5.024-2.033c0.591-0.813,0.47-3.324,0.372-5.343
		c-0.127-2.622-0.271-5.595,0.638-8.395c0.878-2.707,2.709-4.966,4.325-6.959c1.306-1.611,2.931-3.616,2.931-4.756
		s-1.625-3.145-2.931-4.756c-1.615-1.993-3.446-4.252-4.325-6.96c-0.909-2.799-0.765-5.771-0.637-8.394
		c0.098-2.018,0.22-4.528-0.372-5.342c-0.612-0.842-3.059-1.503-5.024-2.034c-2.524-0.682-5.384-1.455-7.746-3.174
		c-2.333-1.698-3.934-4.163-5.347-6.338c-1.118-1.722-2.51-3.864-3.535-4.196c-0.102-0.033-0.24-0.05-0.412-0.05
		c-1.133,0-2.932,0.683-4.671,1.343c-2.485,0.943-5.301,2.013-8.302,2.013s-5.817-1.069-8.302-2.013
		c-1.74-0.66-3.538-1.343-4.671-1.343c-0.172,0-0.31,0.017-0.412,0.05c-1.024,0.332-2.416,2.475-3.533,4.196
		c-1.413,2.175-3.014,4.64-5.349,6.339c-2.36,1.717-5.22,2.49-7.743,3.172c-1.966,0.532-4.413,1.193-5.025,2.035
		c-0.592,0.813-0.47,3.324-0.372,5.342c0.127,2.622,0.271,5.595-0.638,8.395c-0.878,2.707-2.709,4.966-4.325,6.959
		c-1.306,1.611-2.931,3.616-2.931,4.756s1.625,3.145,2.931,4.756c1.616,1.993,3.447,4.252,4.325,6.96
		c0.909,2.799,0.765,5.771,0.637,8.394c-0.098,2.018-0.22,4.528,0.372,5.342c0.612,0.842,3.059,1.503,5.024,2.034
		c2.524,0.682,5.384,1.455,7.746,3.174c2.333,1.698,3.934,4.163,5.347,6.338c1.118,1.722,2.51,3.864,3.535,4.196
		c0.102,0.033,0.24,0.05,0.412,0.05c1.133,0,2.932-0.683,4.671-1.343C46.956,89.673,49.772,88.604,52.773,88.604z"/>
</g>
<g>
	<path fill="#FFFFFF" d="M54.443,27.081v2.692c1.778,0.183,3.304,0.548,4.575,1.097s2.381,1.38,3.328,2.493
		c0.748,0.848,1.326,1.721,1.733,2.618s0.61,1.72,0.61,2.468c0,0.832-0.303,1.551-0.91,2.157c-0.606,0.606-1.342,0.909-2.206,0.909
		c-1.629,0-2.685-0.88-3.166-2.643c-0.549-2.077-1.87-3.457-3.965-4.139v10.372c2.062,0.565,3.703,1.08,4.925,1.546
		c1.222,0.465,2.314,1.139,3.278,2.02c1.03,0.914,1.824,2.007,2.381,3.278s0.835,2.664,0.835,4.176c0,1.895-0.444,3.669-1.334,5.323
		c-0.889,1.654-2.198,3.004-3.927,4.051c-1.729,1.048-3.781,1.671-6.158,1.87v6.208c0,0.98-0.096,1.695-0.286,2.145
		c-0.191,0.448-0.611,0.673-1.259,0.673c-0.599,0-1.019-0.183-1.26-0.549c-0.241-0.365-0.361-0.931-0.361-1.695V67.42
		c-1.944-0.216-3.645-0.673-5.099-1.371s-2.668-1.566-3.64-2.605c-0.973-1.038-1.691-2.119-2.157-3.241
		c-0.465-1.122-0.697-2.223-0.697-3.303c0-0.798,0.312-1.517,0.935-2.157c0.623-0.64,1.4-0.96,2.331-0.96
		c0.748,0,1.38,0.175,1.895,0.523c0.516,0.35,0.873,0.84,1.072,1.472c0.449,1.362,0.839,2.405,1.172,3.129
		c0.332,0.723,0.835,1.384,1.509,1.981c0.673,0.599,1.566,1.056,2.68,1.372V50.666c-2.228-0.614-4.089-1.301-5.585-2.057
		c-1.495-0.757-2.709-1.833-3.64-3.229c-0.931-1.396-1.396-3.191-1.396-5.386c0-2.858,0.91-5.202,2.73-7.03s4.45-2.893,7.891-3.191
		v-2.643c0-1.396,0.523-2.095,1.571-2.095C53.912,25.036,54.443,25.718,54.443,27.081z M51.277,44.184v-9.549
		c-1.396,0.416-2.485,0.964-3.266,1.646c-0.782,0.682-1.172,1.712-1.172,3.092c0,1.313,0.365,2.306,1.097,2.979
		C48.667,43.024,49.781,43.636,51.277,44.184z M54.443,51.589v10.92c1.679-0.332,2.976-1.006,3.89-2.02s1.371-2.194,1.371-3.54
		c0-1.446-0.444-2.564-1.334-3.354C57.481,52.807,56.171,52.137,54.443,51.589z"/>
</g>
</svg>
