<?xml version="1.0" encoding="utf-8"?>
<!-- Generator: Adobe Illustrator 16.0.0, SVG Export Plug-In . SVG Version: 6.00 Build 0)  -->
<!DOCTYPE svg PUBLIC "-//W3C//DTD SVG 1.1//EN" "http://www.w3.org/Graphics/SVG/1.1/DTD/svg11.dtd">
<svg version="1.1" id="Layer_1" xmlns="http://www.w3.org/2000/svg" xmlns:xlink="http://www.w3.org/1999/xlink" x="0px" y="0px"
	 width="150.989px" height="137.536px" viewBox="0 0 150.989 137.536" enable-background="new 0 0 150.989 137.536"
	 xml:space="preserve">
<path fill="#FFFFFF" d="M115.522,32.423c0,4.573-3.331,7.356-5.762,9.397c-0.92,0.774-2.635,2.184-2.63,2.711
	c0.016,2.068-1.646,3.72-3.713,3.72h-0.033c-2.051,0-3.724-1.601-3.741-3.658c-0.034-4.055,2.925-6.483,5.303-8.478
	c1.865-1.567,3.089-2.669,3.089-3.678c0-2.042-1.661-3.703-3.704-3.703c-2.042,0-3.705,1.661-3.705,3.703
	c0,2.067-1.676,3.743-3.743,3.743c-2.068,0-3.743-1.676-3.743-3.743c0-6.171,5.021-11.191,11.191-11.191
	C110.501,21.246,115.522,26.253,115.522,32.423 M103.488,51.705c-2.068,0-3.66,1.676-3.66,3.743v0.029c0,2.067,1.594,3.73,3.66,3.73
	c2.068,0,3.745-1.692,3.745-3.76S105.558,51.705,103.488,51.705 M28.032,77.783c-2.068,0-3.743,1.677-3.743,3.743
	c0,2.068,1.675,3.743,3.743,3.743h0.311c2.069,0,3.745-1.675,3.745-3.743c0-2.066-1.676-3.743-3.745-3.743H28.032z M41.043,77.783
	c-2.068,0-3.744,1.677-3.744,3.743c0,2.068,1.676,3.743,3.744,3.743h0.31c2.068,0,3.743-1.675,3.743-3.743
	c0-2.066-1.675-3.743-3.743-3.743H41.043z M150.989,17.99v42.136c0,9.977-7.998,18.071-17.974,18.071h-48.55
	c-0.948,0-1.73-0.004-2.384-0.018c-0.686-0.014-1.456-0.021-1.757,0.014c-0.312,0.207-1.082,0.91-1.822,1.593
	c-0.292,0.271-0.625,0.566-0.982,0.894L63.784,93.198c-1.095,1-2.716,1.261-4.074,0.661c-1.357-0.598-2.31-1.941-2.31-3.425V50.746
	H18.186c-5.85,0-10.7,4.795-10.7,10.642v42.135c0,5.849,4.85,10.448,10.7,10.448h54.227c0.935,0,1.808,0.428,2.499,1.058
	l11.191,10.318v-35.58c0-2.068,1.675-3.743,3.743-3.743c2.067,0,3.743,1.675,3.743,3.743v44.065c0,1.481-0.849,2.807-2.206,3.403
	c-0.485,0.215-0.973,0.301-1.483,0.301c-0.917,0-1.822-0.378-2.524-1.02l-16.413-15.06H18.186C8.209,121.457,0,113.501,0,103.522
	V61.388c0-9.978,8.209-18.129,18.186-18.129H57.4V17.99C57.4,8.013,65.673,0,75.649,0h57.366C142.991,0,150.989,8.013,150.989,17.99
	 M143.503,17.99c0-5.849-4.641-10.504-10.488-10.504H75.649c-5.85,0-10.76,4.655-10.76,10.504v63.959l7.526-6.802
	c0.348-0.317,0.74-0.609,1.024-0.871c3.436-3.169,4.316-3.675,8.798-3.581c0.612,0.013,1.341,0.017,2.228,0.017h48.55
	c5.847,0,10.488-4.736,10.488-10.586V17.99z"/>
</svg>
