<?xml version="1.0" encoding="utf-8"?>
<!-- Generator: Adobe Illustrator 16.0.0, SVG Export Plug-In . SVG Version: 6.00 Build 0)  -->
<!DOCTYPE svg PUBLIC "-//W3C//DTD SVG 1.1//EN" "http://www.w3.org/Graphics/SVG/1.1/DTD/svg11.dtd">
<svg version="1.1" id="Layer_1" xmlns="http://www.w3.org/2000/svg" xmlns:xlink="http://www.w3.org/1999/xlink" x="0px" y="0px"
	 width="165.646px" height="161.701px" viewBox="0 0 165.646 161.701" enable-background="new 0 0 165.646 161.701"
	 xml:space="preserve">
<path fill="#FFFFFF" d="M165.629,49.936c-0.002-0.024-0.007-0.048-0.01-0.072c-0.01-0.081-0.021-0.161-0.037-0.241
	c-0.01-0.053-0.025-0.103-0.038-0.154c-0.013-0.05-0.024-0.101-0.039-0.15c-0.025-0.081-0.054-0.158-0.084-0.236
	c-0.008-0.02-0.014-0.041-0.023-0.062c-0.045-0.107-0.094-0.211-0.149-0.312L148.13,16.971c0.692-0.433,1.321-0.96,1.869-1.581
	c1.471-1.667,2.281-3.877,2.281-6.22c0-4.446-3.198-9.17-9.125-9.17h-39.359c-2.735,0-5.165,1.047-6.843,2.949
	c-1.471,1.668-2.281,3.876-2.281,6.221c0,3.105,1.563,6.346,4.524,8.018L79.181,48.52c-0.016,0.025-0.029,0.051-0.043,0.075
	c-0.035,0.058-0.07,0.117-0.101,0.177c-0.02,0.038-0.038,0.077-0.056,0.116c-0.027,0.057-0.052,0.113-0.076,0.171
	c-0.018,0.045-0.034,0.091-0.05,0.137c-0.018,0.054-0.036,0.105-0.052,0.158c-0.015,0.054-0.028,0.107-0.041,0.161
	c-0.011,0.048-0.022,0.095-0.032,0.144c-0.011,0.062-0.019,0.122-0.028,0.183c-0.005,0.044-0.011,0.087-0.015,0.131
	c-0.006,0.065-0.008,0.133-0.01,0.2c-0.001,0.029-0.005,0.059-0.005,0.089v26.691c-1.589,0.847-3.058,1.926-4.36,3.216
	c-1.077-0.263-2.184-0.395-3.312-0.395c-5.76,0-10.791,3.548-12.913,8.619c-3.887-1.163-8.048-0.573-11.547,1.776
	c-3.921,2.633-6.159,6.919-6.283,11.707h-2.839L21.737,57.038c-0.565-1.618-1.763-2.897-3.372-3.603
	c-1.682-0.738-3.613-0.743-5.298-0.014l-9.098,3.936c-1.643,0.712-2.943,2.085-3.566,3.769c-0.608,1.645-0.527,3.402,0.228,4.951
	l17.791,36.47c-0.77,0.591-1.268,1.518-1.268,2.564c0,17.417,5.971,32.08,17.267,42.405c10.007,9.146,23.451,14.183,37.855,14.185
	h0.005c3.793,0,7.518-0.353,11.133-1.034h78.996c0.001,0-0.001,0,0,0c1.787,0,3.236-1.448,3.236-3.235V50.279
	C165.646,50.165,165.641,50.051,165.629,49.936 M141.517,18.34l15.473,28.686h-30.909l-16.177-28.685L141.517,18.34L141.517,18.34z
	 M127.427,83.349h31.749v42.301h-31.749V83.349z M127.427,71.169h31.749v5.71h-31.749V71.169z M127.427,64.697v-11.2l31.748-0.002
	v11.202H127.427z M118.653,47.025h-30.84l16.38-25.641L118.653,47.025z M127.427,132.119h31.749v5.71h-31.749V132.119z
	 M103.796,6.47h39.359c2.463,0,2.654,2.066,2.654,2.7c0,0.633-0.191,2.699-2.654,2.699h-39.359c-2.462,0-2.653-2.066-2.653-2.699
	C101.143,8.536,101.334,6.47,103.796,6.47 M85.142,53.497h35.814v36.529c-2.533-3.599-6.716-5.958-11.442-5.958
	c-1.834,0-3.637,0.361-5.309,1.047c-3.101-6.25-9.5-10.343-16.746-10.343c-0.781,0-1.554,0.053-2.317,0.147V53.497z M50.146,95.542
	c2.516-1.689,5.705-1.643,8.323,0.12c0.958,0.646,2.186,0.73,3.224,0.226s1.728-1.525,1.81-2.677
	c0.281-3.906,3.574-6.967,7.497-6.967c1.046,0,2.058,0.21,3.008,0.626c1.348,0.591,2.925,0.195,3.836-0.961
	c2.339-2.966,5.844-4.666,9.615-4.666c5.697,0,10.594,3.866,11.906,9.4c0.26,1.099,1.075,1.982,2.148,2.331
	c1.074,0.348,2.252,0.113,3.108-0.623c1.36-1.168,3.098-1.812,4.893-1.812c4.145,0,7.516,3.372,7.516,7.517
	c0,1.353-0.364,2.67-1.043,3.82H46.729C46.84,99.231,48.034,96.96,50.146,95.542 M6.539,63.296l9.097-3.937
	c0.016-0.007,0.035-0.01,0.055-0.01l14.872,42.526h-5.268L6.493,63.335C6.505,63.319,6.521,63.304,6.539,63.296 M72.276,155.23
	c-22.685-0.002-47.047-14.702-48.576-46.885h11.397c0.008,0.001,0.016,0.001,0.024,0.001c0.008,0,0.016-0.001,0.023-0.001h8.617
	c0.005,0,0.01,0.001,0.015,0.001c0.004,0,0.008-0.001,0.012-0.001h77.091c-0.682,14.12-5.865,25.961-15.093,34.392
	c-6.359,5.811-14.321,9.737-23.063,11.476c-0.177,0.018-0.349,0.053-0.517,0.098c-3.219,0.606-6.54,0.92-9.925,0.92H72.276z
	 M110.15,147.515c4.438-4.054,8.05-8.78,10.806-14.076v20.758h-19.945C104.289,152.303,107.354,150.069,110.15,147.515
	 M127.427,144.3h31.749v9.896h-31.749V144.3z"/>
<path fill="#FFFFFF" d="M54.214,136.847l-0.086-0.059c-1.47-1.015-3.485-0.646-4.5,0.825c-1.014,1.471-0.645,3.485,0.826,4.501
	l0.104,0.07c0.559,0.384,1.195,0.567,1.825,0.567c1.032,0,2.045-0.492,2.672-1.408C56.065,139.87,55.688,137.857,54.214,136.847"/>
<path fill="#FFFFFF" d="M39.273,117.371c-0.329-1.757-2.02-2.911-3.776-2.584c-1.756,0.328-2.913,2.02-2.584,3.775
	c1.298,6.926,5.786,12.813,9.322,16.53c0.636,0.668,1.49,1.005,2.345,1.005c0.801,0,1.603-0.295,2.229-0.891
	c1.295-1.231,1.346-3.279,0.115-4.574C43.989,127.548,40.28,122.743,39.273,117.371"/>
</svg>
