<?xml version="1.0" encoding="utf-8"?>
<!-- Generator: Adobe Illustrator 16.0.0, SVG Export Plug-In . SVG Version: 6.00 Build 0)  -->
<!DOCTYPE svg PUBLIC "-//W3C//DTD SVG 1.1//EN" "http://www.w3.org/Graphics/SVG/1.1/DTD/svg11.dtd">
<svg version="1.1" id="Layer_1" xmlns="http://www.w3.org/2000/svg" xmlns:xlink="http://www.w3.org/1999/xlink" x="0px" y="0px"
	 width="140.986px" height="111.11px" viewBox="0 0 140.986 111.11" enable-background="new 0 0 140.986 111.11"
	 xml:space="preserve">
<path fill="#FFFFFF" d="M28.103,19.944c0-4.498-3.659-8.158-8.157-8.158s-8.157,3.66-8.157,8.158s3.659,8.157,8.157,8.157
	S28.103,24.442,28.103,19.944 M19.946,22.233c-1.262,0-2.289-1.027-2.289-2.289c0-1.263,1.027-2.289,2.289-2.289
	s2.289,1.026,2.289,2.289C22.235,21.207,21.208,22.233,19.946,22.233"/>
<path fill="#FFFFFF" d="M135.426,36.725V16.007c0-4.01-3.264-7.277-7.278-7.282l-91.74-0.046c-0.717-1.043-1.537-2.027-2.458-2.936
	c-3.83-3.777-8.9-5.821-14.287-5.741C8.885,0.151,0.064,9.043,0,19.824c-0.019,3.194,0.736,6.376,2.184,9.202
	c0.029,0.056,4.772,8.009,4.772,8.009v66.734c0,4.014,3.265,7.279,7.278,7.279l113.907,0.062c4.017,0,7.285-3.267,7.285-7.283
	V65.281c0,0,3.347-5.612,3.376-5.668c1.428-2.789,2.184-5.93,2.184-9.082C140.985,45.335,139.012,40.456,135.426,36.725
	 M115.364,14.587l-14.167,14.167L87.017,14.572L115.364,14.587z M97.462,32.488l-24.69,24.691l-9.027-9.028
	c-0.001,0-0.001-0.001-0.002-0.001c0-0.001-0.001-0.001-0.001-0.002l-6.772-6.771l24.69-24.69L97.462,32.488z M48.295,67.334
	l13.581-13.582l17.449,17.449L65.743,84.782L48.295,67.334z M51.605,78.113L36.371,93.347L24.164,81.14l15.234-15.235L51.605,78.113
	z M37.707,29.026c1.428-2.789,2.184-5.929,2.184-9.082c0-1.851-0.256-3.662-0.74-5.396l37.161,0.019L53.236,37.642l-8.263-8.263
	c-1.031-1.031-2.703-1.031-3.735,0c-1.031,1.032-1.031,2.704,0,3.735l16.904,16.904L44.561,63.599l-10.999-11
	c-1.032-1.031-2.704-1.031-3.735,0c-1.031,1.032-1.031,2.704,0,3.735l5.837,5.837L12.824,85.009V46.871l2.084,3.492
	c1.069,1.791,2.951,2.861,5.037,2.861c2.085,0,3.968-1.07,5.037-2.86C24.982,50.364,37.677,29.083,37.707,29.026 M7.366,26.271
	c-1.007-1.997-1.511-4.153-1.497-6.411c0.045-7.609,6.269-13.884,13.875-13.99c3.805-0.047,7.382,1.387,10.085,4.053
	c0.931,0.918,1.714,1.944,2.345,3.047c0.028,0.052,0.058,0.103,0.089,0.153c1.146,2.063,1.759,4.394,1.759,6.823
	c0,2.228-0.504,4.355-1.498,6.326L19.948,47.357L7.366,26.271z M14.235,105.18c-0.778,0-1.411-0.633-1.411-1.411v-11.29l7.604-7.604
	l20.32,20.32L14.235,105.18z M48.221,105.199l-8.116-8.117L55.34,81.847l23.367,23.368L48.221,105.199z M69.479,88.517
	l13.582-13.582l9.862,9.863L79.341,98.379L69.479,88.517z M86.18,105.219l-3.105-3.105l13.581-13.582l16.702,16.702L86.18,105.219z
	 M129.559,103.827c0,0.78-0.636,1.415-1.416,1.415l-7.31-0.004l-20.441-20.44l6.152-6.152c1.032-1.031,1.032-2.704,0-3.735
	c-1.031-1.031-2.703-1.031-3.734,0l-6.153,6.152L84.928,69.335c0-0.001-0.001-0.001-0.001-0.002c-0.001,0-0.001,0-0.002-0.001
	l-8.418-8.419l10.01-10.01l5.187,5.187c0.573,0.573,1.324,0.859,2.075,0.859s1.502-0.286,2.075-0.859
	c1.146-1.146,1.146-3.004,0-4.15l-5.187-5.187l32.162-32.162l5.313,0.002c0.78,0.001,1.415,0.635,1.415,1.414v16.478
	c-2.712-1.284-5.702-1.944-8.799-1.897c-10.779,0.15-19.599,9.042-19.663,19.823c-0.019,3.194,0.736,6.376,2.184,9.202
	c0.028,0.056,12.724,21.337,12.724,21.337c1.068,1.791,2.951,2.86,5.037,2.86c2.085,0,3.968-1.068,5.036-2.86l3.481-5.833
	L129.559,103.827L129.559,103.827z M133.619,56.857l-3.703,6.209c-0.001,0.003-0.003,0.005-0.004,0.007l-8.869,14.87l-12.581-21.086
	c-1.007-1.997-1.511-4.153-1.498-6.412c0.045-7.608,6.27-13.884,13.876-13.989c3.797-0.052,7.382,1.386,10.084,4.052
	c2.704,2.666,4.193,6.226,4.193,10.023C135.117,52.759,134.613,54.887,133.619,56.857"/>
<path fill="#FFFFFF" d="M121.041,42.374c-4.498,0-8.157,3.659-8.157,8.157s3.659,8.158,8.157,8.158s8.157-3.66,8.157-8.158
	S125.539,42.374,121.041,42.374 M121.041,52.82c-1.262,0-2.289-1.027-2.289-2.289c0-1.262,1.027-2.289,2.289-2.289
	c1.262,0,2.289,1.027,2.289,2.289C123.33,51.793,122.303,52.82,121.041,52.82"/>
</svg>
