<?xml version="1.0" encoding="utf-8"?>
<!-- Generator: Adobe Illustrator 16.0.0, SVG Export Plug-In . SVG Version: 6.00 Build 0)  -->
<!DOCTYPE svg PUBLIC "-//W3C//DTD SVG 1.1//EN" "http://www.w3.org/Graphics/SVG/1.1/DTD/svg11.dtd">
<svg version="1.1" id="Layer_1" xmlns="http://www.w3.org/2000/svg" xmlns:xlink="http://www.w3.org/1999/xlink" x="0px" y="0px"
	 width="960px" height="560px" viewBox="0 0 960 560" enable-background="new 0 0 960 560" xml:space="preserve">
<path fill="#EE4036" d="M386.365,248.022l-97.035-29.729c-16.112,49.802-12.828,105.818,13.658,155.696l89.617-47.587
	C379.26,301.272,377.846,272.983,386.365,248.022"/>
<g opacity="0.1">
	<g>
		<defs>
			<rect id="SVGID_1_" x="291.067" y="326.403" width="101.539" height="47.587"/>
		</defs>
		<clipPath id="SVGID_2_">
			<use xlink:href="#SVGID_1_"  overflow="visible"/>
		</clipPath>
		<path clip-path="url(#SVGID_2_)" fill="#231F20" d="M291.066,346.946c3.258,9.161,7.225,18.2,11.922,27.043l89.617-47.587
			L291.066,346.946z"/>
	</g>
</g>
<path fill="#8BC53F" d="M567.394,233.592l89.619-47.587c-25.424-47.88-67.506-81.214-115.308-96.677l-29.729,97.035
	C534.952,194.205,555.112,210.46,567.394,233.592"/>
<g opacity="0.1">
	<g>
		<defs>
			<rect id="SVGID_3_" x="511.977" y="89.33" width="47.872" height="97.03"/>
		</defs>
		<clipPath id="SVGID_4_">
			<use xlink:href="#SVGID_3_"  overflow="visible"/>
		</clipPath>
		<path clip-path="url(#SVGID_4_)" fill="#231F20" d="M559.85,96.178c-5.939-2.572-11.994-4.86-18.145-6.849l-29.728,97.035
			L559.85,96.178z"/>
	</g>
</g>
<path fill="#009345" d="M657.013,186.005l-89.619,47.587h0.002c12.282,23.132,14.458,48.937,8.085,72.362l97.035,29.725
	C686.479,287.418,682.436,233.886,657.013,186.005"/>
<g opacity="0.1">
	<g>
		<defs>
			<rect id="SVGID_5_" x="567.394" y="186.01" width="97.772" height="47.58"/>
		</defs>
		<clipPath id="SVGID_6_">
			<use xlink:href="#SVGID_5_"  overflow="visible"/>
		</clipPath>
		<path clip-path="url(#SVGID_6_)" fill="#231F20" d="M657.013,186.005l-89.619,47.587h0.002c-0.002,0,97.771-30.323,97.771-30.323
			C662.745,197.449,660.03,191.688,657.013,186.005"/>
	</g>
</g>
<path fill="#1B75BB" d="M526.407,367.394c-23.132,12.284-48.938,14.458-72.363,8.083l-29.726,97.035
	c48.264,13.969,101.796,9.924,149.676-15.499c1.314-0.698,2.612-1.419,3.904-2.138l-47.608-89.66
	C529.018,365.963,527.726,366.694,526.407,367.394"/>
<g opacity="0.1">
	<g>
		<defs>
			<rect id="SVGID_7_" x="530.29" y="365.215" width="47.609" height="100.528"/>
		</defs>
		<clipPath id="SVGID_8_">
			<use xlink:href="#SVGID_7_"  overflow="visible"/>
		</clipPath>
		<path clip-path="url(#SVGID_8_)" fill="#231F20" d="M555.317,465.743c6.303-2.56,12.535-5.471,18.677-8.729
			c1.314-0.7,2.612-1.42,3.905-2.14l-47.609-89.659L555.317,465.743z"/>
	</g>
</g>
<path fill="#26A9E0" d="M530.29,365.216l47.608,89.658c47.755-26.709,80.452-70.236,94.617-119.193l-97.035-29.726
	C568.92,330.072,553.294,351.661,530.29,365.216"/>
<g opacity="0.1">
	<g>
		<defs>
			<rect id="SVGID_9_" x="575.481" y="305.956" width="97.034" height="54.09"/>
		</defs>
		<clipPath id="SVGID_10_">
			<use xlink:href="#SVGID_9_"  overflow="visible"/>
		</clipPath>
		<path clip-path="url(#SVGID_10_)" fill="#231F20" d="M663.735,360.046c3.447-7.931,6.379-16.069,8.781-24.365l-97.035-29.726
			L663.735,360.046z"/>
	</g>
</g>
<path fill="#FFF100" d="M511.977,186.363l29.729-97.035c-48.489-15.688-102.865-12.979-151.736,11.62l47.607,89.66
	C461.689,179.144,488.324,178.292,511.977,186.363"/>
<g opacity="0.1">
	<g>
		<defs>
			<rect id="SVGID_11_" x="389.969" y="92.35" width="47.607" height="98.26"/>
		</defs>
		<clipPath id="SVGID_12_">
			<use xlink:href="#SVGID_11_"  overflow="visible"/>
		</clipPath>
		<path clip-path="url(#SVGID_12_)" fill="#231F20" d="M409.566,92.351c-6.612,2.492-13.152,5.354-19.597,8.598l47.607,89.659
			L409.566,92.351z"/>
	</g>
</g>
<path fill="#F6921E" d="M433.595,192.605c1.318-0.699,2.647-1.363,3.981-1.998l-47.607-89.659c-1.324,0.667-2.646,1.339-3.959,2.038
	c-47.88,25.423-81.214,67.504-96.679,115.308l97.035,29.728C394.208,225.046,410.462,204.89,433.595,192.605"/>
<g opacity="0.1">
	<g>
		<defs>
			<rect id="SVGID_13_" x="289.33" y="193.24" width="97.035" height="54.783"/>
		</defs>
		<clipPath id="SVGID_14_">
			<use xlink:href="#SVGID_13_"  overflow="visible"/>
		</clipPath>
		<path clip-path="url(#SVGID_14_)" fill="#231F20" d="M299.333,193.24c-5.018,10.624-6.517,14.281-10.002,25.054l97.035,29.728
			L299.333,193.24z"/>
	</g>
</g>
<path fill="#EB008B" d="M392.605,326.407v-0.004l-89.617,47.587c26.487,49.882,71.049,83.975,121.329,98.521l29.726-97.035
	C428.592,368.555,405.953,351.541,392.605,326.407"/>
<g opacity="0.1">
	<g>
		<defs>
			<rect id="SVGID_15_" x="398.836" y="375.477" width="55.208" height="97.035"/>
		</defs>
		<clipPath id="SVGID_16_">
			<use xlink:href="#SVGID_15_"  overflow="visible"/>
		</clipPath>
		<path clip-path="url(#SVGID_16_)" fill="#231F20" d="M398.836,463.243c8.282,3.662,16.798,6.757,25.482,9.27l29.726-97.035
			L398.836,463.243z"/>
	</g>
</g>
</svg>
